# xmcd CD database file
#
# Track frame offsets:
#	150
#	29452
#	56077
#	75350
#	98077
#	119077
#	142327
#	166025
#	194677
#	220627
#	237577
#
# Disc length: 3430 seconds
#
# Revision: 1
# Processed by: cddbd v1.5.1PL0 Copyright (c) Steve Scherf et al.
# Submitted via: CDex 1.51
#
DISCID=9e0d640b
DTITLE=Silvia Droste - Audiophile voicings
DYEAR=1900
DGENRE=Jazz
TTITLE0=My one and only love
TTITLE1=Do you know what it means to miss
TTITLE2=The very thought of you
TTITLE3=Good bye pork pie hat
TTITLE4=Easy living
TTITLE5=Summer knows
TTITLE6=Desmondstration
TTITLE7=Willow weep for me
TTITLE8=Skylark
TTITLE9=Don't be that way
TTITLE10=Not like this
EXTD=
EXTT0=
EXTT1=
EXTT2=
EXTT3=
EXTT4=
EXTT5=
EXTT6=
EXTT7=
EXTT8=
EXTT9=
EXTT10=
PLAYORDER=
